<?xml version="1.0" encoding="UTF-8"?>
<svg xmlns="http://www.w3.org/2000/svg" xmlns:xlink="http://www.w3.org/1999/xlink" width="595pt" height="120.664pt" viewBox="0 0 595 120.664" version="1.1">
<defs>
<clipPath id="clip1">
  <path d="M 62 109 L 67 109 L 67 117.835938 L 62 117.835938 Z M 62 109 "/>
</clipPath>
</defs>
<g id="surface1">
<path style=" stroke:none;fill-rule:nonzero;fill:rgb(13.729858%,12.159729%,12.548828%);fill-opacity:1;" d="M 32.988281 112.859375 C 32.757812 113.414062 32.71875 113.667969 32.710938 114.21875 L 31.535156 113.753906 C 32.148438 113.101562 32.226562 112.910156 32.492188 112.253906 L 34.0625 108.410156 L 32.664062 108.859375 L 32.421875 108.585938 C 32.679688 108.5 34.871094 107.644531 35.171875 107.574219 L 32.988281 112.859375 "/>
<g clip-path="url(#clip1)" clip-rule="nonzero">
<path style=" stroke:none;fill-rule:nonzero;fill:rgb(13.729858%,12.159729%,12.548828%);fill-opacity:1;" d="M 65.4375 110.410156 L 64.332031 110.511719 C 63.140625 110.621094 62.75 110.882812 62.382812 111.167969 L 62.421875 110.394531 C 62.433594 110.226562 62.429688 110.160156 62.402344 110.039062 L 66.460938 109.671875 L 65.039062 112.945312 C 66.792969 113.121094 66.914062 114.453125 66.933594 114.667969 C 66.980469 115.199219 66.695312 116.78125 64.582031 116.976562 C 63.550781 117.070312 63.101562 116.914062 62.800781 116.800781 L 63.292969 115.570312 C 63.410156 115.863281 63.695312 116.523438 64.691406 116.433594 C 65.699219 116.339844 66.199219 115.457031 66.132812 114.722656 C 66.085938 114.21875 65.730469 113.839844 65.375 113.71875 C 64.859375 113.542969 64.347656 113.597656 63.941406 113.644531 L 65.4375 110.410156 "/>
</g>
<path style=" stroke:none;fill-rule:nonzero;fill:rgb(13.729858%,12.159729%,12.548828%);fill-opacity:1;" d="M 50.382812 113.25 L 50.355469 113.253906 L 49.304688 113.144531 L 51.082031 109.898438 L 47.445312 109.535156 C 47.203125 109.511719 47.074219 109.496094 46.972656 109.476562 C 46.878906 109.457031 46.816406 109.441406 46.722656 109.421875 L 46.539062 110.609375 C 47.03125 110.28125 47.234375 110.140625 48.859375 110.304688 L 49.988281 110.417969 L 48.554688 113.074219 L 47.5 112.964844 C 47.304688 112.945312 47.203125 112.933594 47.121094 112.917969 C 47.046875 112.90625 46.996094 112.890625 46.921875 112.875 L 46.828125 113.3125 L 46.800781 113.316406 L 46.828125 113.320312 L 46.824219 113.324219 L 46.855469 113.320312 L 48.339844 113.472656 L 47.699219 114.660156 C 47.292969 115.417969 46.890625 116.042969 46.417969 116.476562 L 47.875 116.621094 C 47.875 116.554688 47.875 116.371094 47.886719 116.246094 C 47.929688 115.820312 48.121094 115.3125 48.710938 114.234375 L 49.085938 113.546875 L 49.707031 113.609375 C 49.902344 113.628906 50.003906 113.636719 50.085938 113.652344 C 50.160156 113.667969 50.210938 113.683594 50.285156 113.695312 L 50.378906 113.261719 L 50.410156 113.257812 L 50.382812 113.257812 L 50.382812 113.25 "/>
<path style=" stroke:none;fill-rule:nonzero;fill:rgb(13.729858%,12.159729%,12.548828%);fill-opacity:1;" d="M 81.742188 111.15625 L 81.714844 111.171875 L 80.660156 111.398438 L 81.359375 107.757812 L 77.785156 108.527344 C 77.546875 108.578125 77.417969 108.605469 77.316406 108.617188 C 77.222656 108.625 77.15625 108.632812 77.0625 108.644531 L 77.25 109.828125 C 77.617188 109.363281 77.769531 109.167969 79.367188 108.828125 L 80.472656 108.589844 L 79.925781 111.554688 L 78.910156 111.769531 C 78.71875 111.8125 78.617188 111.835938 78.535156 111.84375 C 78.460938 111.851562 78.410156 111.855469 78.332031 111.863281 L 78.375 112.308594 L 78.351562 112.320312 L 78.375 112.316406 L 78.378906 112.320312 L 78.40625 112.308594 L 79.84375 112 L 79.597656 113.328125 C 79.445312 114.175781 79.253906 114.890625 78.933594 115.449219 L 80.371094 115.140625 C 80.347656 115.082031 80.289062 114.902344 80.265625 114.78125 C 80.171875 114.363281 80.199219 113.820312 80.429688 112.617188 L 80.578125 111.84375 L 81.210938 111.707031 C 81.398438 111.667969 81.5 111.644531 81.585938 111.632812 C 81.660156 111.625 81.710938 111.621094 81.785156 111.613281 L 81.742188 111.171875 L 81.769531 111.15625 L 81.742188 111.164062 L 81.742188 111.15625 "/>
<path style=" stroke:none;fill-rule:nonzero;fill:rgb(72.889709%,77.11792%,86.126709%);fill-opacity:1;" d="M 23.433594 50.105469 L 15.667969 50.105469 C 15.667969 63.449219 24.097656 77.582031 42.230469 83.179688 C 43.316406 80.972656 44.402344 78.621094 45.5 76.097656 C 28.449219 71.371094 23.433594 58.421875 23.433594 50.105469 "/>
<path style=" stroke:none;fill-rule:nonzero;fill:rgb(72.889709%,77.11792%,86.126709%);fill-opacity:1;" d="M 60.050781 77.90625 C 56.09375 77.90625 52.546875 77.570312 49.351562 76.976562 C 48.082031 80.027344 46.988281 82.617188 46.21875 84.226562 C 50.378906 85.152344 54.980469 85.675781 60.050781 85.675781 C 62.449219 85.675781 64.765625 85.445312 67.015625 85.050781 C 65.796875 82.648438 64.707031 80.183594 63.765625 77.675781 C 62.546875 77.8125 61.316406 77.90625 60.050781 77.90625 "/>
<path style=" stroke:none;fill-rule:nonzero;fill:rgb(6.494141%,24.14093%,45.552063%);fill-opacity:1;" d="M 69.539062 89.601562 C 66.6875 90.21875 63.734375 90.585938 60.6875 90.640625 C 54.992188 90.746094 49.300781 90.066406 43.898438 88.71875 C 42.40625 91.484375 40.910156 93.992188 39.402344 96.285156 C 46.257812 98.257812 53.558594 99.277344 60.84375 99.144531 C 65.703125 99.054688 70.339844 98.335938 74.734375 97.113281 C 74.214844 96.445312 73.691406 95.761719 73.15625 95.042969 C 71.867188 93.3125 70.667969 91.488281 69.539062 89.601562 "/>
<path style=" stroke:none;fill-rule:nonzero;fill:rgb(6.494141%,24.14093%,45.552063%);fill-opacity:1;" d="M 19.792969 76.035156 C 13.046875 69.46875 9.585938 61.453125 9.511719 52.214844 C 9.296875 26.554688 34.09375 10.988281 58.183594 10.761719 C 81.816406 10.542969 101.316406 25.441406 101.515625 25.589844 L 103.675781 27.425781 L 105.738281 17.234375 C 100.351562 13.445312 81.03125 2.042969 58.105469 2.253906 C 29.835938 2.519531 0.746094 21.304688 1.003906 52.285156 C 1.097656 63.714844 5.542969 74.035156 13.855469 82.132812 C 19.5625 87.6875 27.09375 92.097656 35.476562 95.042969 C 36.964844 92.855469 38.453125 90.375 39.953125 87.597656 C 32.070312 85.085938 25.011719 81.121094 19.792969 76.035156 "/>
<path style=" stroke:none;fill-rule:nonzero;fill:rgb(6.494141%,24.14093%,45.552063%);fill-opacity:1;" d="M 116.304688 56.0625 L 117.898438 50.617188 L 71.960938 50.617188 L 71.960938 59.125 C 71.960938 59.125 97.308594 59.125 106.105469 59.125 C 100.652344 71.484375 89.125 83.5 74.128906 88.375 C 75.542969 90.808594 77.238281 93.277344 79.144531 95.6875 C 98.023438 88.710938 111.570312 72.238281 116.304688 56.0625 "/>
<path style=" stroke:none;fill-rule:nonzero;fill:rgb(72.889709%,77.11792%,86.126709%);fill-opacity:1;" d="M 119.609375 17.871094 L 109.246094 17.871094 L 108.644531 21.03125 C 104.738281 41.53125 91.035156 70.980469 68.269531 76.847656 C 69.289062 79.164062 70.445312 81.5625 71.695312 83.949219 C 95.855469 76.660156 110.605469 47.570312 115.585938 25.640625 C 115.652344 25.640625 115.65625 25.640625 115.722656 25.640625 C 115.722656 32.453125 115.722656 82.980469 115.722656 82.980469 L 123.492188 82.980469 L 123.492188 17.871094 L 119.609375 17.871094 "/>
<path style=" stroke:none;fill-rule:nonzero;fill:rgb(13.729858%,12.159729%,12.548828%);fill-opacity:1;" d="M 105.148438 103.484375 C 103.953125 103.265625 103.425781 105.613281 105.257812 105.875 C 106.015625 106.199219 105.800781 107.503906 104.277344 108.808594 C 102.753906 110.117188 95.144531 112.398438 89.273438 107.503906 C 83.402344 102.613281 77.308594 95.871094 73.179688 88.695312 C 70.039062 83.242188 66.40625 75.851562 64.359375 69.558594 C 72.839844 69.761719 71.875 65.96875 71.875 65.96875 C 70.402344 68.492188 67.203125 68.976562 64.109375 68.761719 C 63.585938 67.066406 63.183594 65.457031 62.957031 64.011719 C 61.871094 57.054688 62.089844 50.203125 62.414062 48.789062 C 62.414062 48.789062 62.230469 48.90625 61.929688 49.140625 L 61.980469 48.898438 C 61.980469 48.898438 52.628906 54.878906 41.863281 48.246094 C 31.097656 41.613281 33.597656 17.472656 52.300781 17.582031 C 55.890625 17.472656 61.542969 18.558594 63.828125 22.148438 C 63.828125 22.148438 64.480469 20.953125 66 20.515625 C 66 20.515625 64.480469 20.625 63.390625 20.082031 C 62.304688 19.539062 60.785156 16.710938 51.648438 16.710938 C 42.515625 16.710938 32.730469 23.125 32.730469 35.195312 C 32.730469 46.890625 45.488281 56.132812 60.324219 50.566406 C 58.042969 52.820312 54.234375 57.523438 50.640625 66.195312 C 48.664062 66.125 46.976562 66.511719 46.929688 68.035156 C 46.871094 69.835938 47.941406 70.328125 48.953125 70.402344 C 43.554688 83.835938 38.234375 93.90625 32.621094 100.4375 C 27.507812 106.390625 22.292969 111.746094 11.960938 110.441406 C 8.261719 109.898438 2.9375 104.679688 7.394531 98.914062 C 7.929688 98.222656 8.265625 100.328125 10.222656 99.242188 C 12.179688 98.15625 8.914062 95.4375 6.632812 98.15625 C 4.351562 100.875 1.957031 110.988281 16.527344 111.855469 C 31.097656 112.726562 42.1875 90.109375 45.125 84.238281 C 46.554688 81.378906 49.421875 74.128906 52.414062 67.121094 C 55.316406 67.589844 59.050781 68.796875 61.21875 69.339844 C 61.554688 69.375 61.882812 69.410156 62.199219 69.433594 C 64.046875 77.101562 67.757812 86.148438 73.941406 94.457031 C 88.511719 114.03125 96.121094 112.617188 103.40625 110.769531 C 105.800781 109.679688 109.496094 104.351562 105.148438 103.484375 Z M 48.277344 68.144531 C 48.277344 67.265625 49.097656 66.9375 50.339844 66.929688 C 50.230469 67.195312 50.125 67.4375 50.019531 67.707031 C 49.742188 68.421875 49.464844 69.113281 49.1875 69.808594 C 48.445312 69.464844 48.277344 68.957031 48.277344 68.144531 Z M 56.761719 67.273438 C 56.121094 67.101562 54.480469 66.667969 52.722656 66.402344 C 55.792969 59.257812 58.945312 52.53125 60.785156 51.179688 C 60.785156 51.179688 59.875 57.597656 61.5625 66.507812 C 61.683594 67.15625 61.847656 67.839844 61.996094 68.511719 C 59.527344 68.117188 57.421875 67.449219 56.761719 67.273438 "/>
<path style=" stroke:none;fill-rule:nonzero;fill:rgb(13.729858%,12.159729%,12.548828%);fill-opacity:1;" d="M 161.890625 21.691406 C 160.160156 19.71875 157.5625 18.699219 154.933594 18.699219 C 149.675781 18.699219 146.027344 22.15625 146.027344 28.382812 C 146.027344 34.488281 149.183594 38.285156 155.273438 38.285156 C 156.945312 38.285156 158.675781 37.976562 160.097656 37.234375 L 160.097656 29.308594 C 160.53125 29.339844 160.996094 29.386719 161.457031 29.386719 C 161.890625 29.386719 162.320312 29.339844 162.816406 29.308594 L 162.816406 38.035156 C 160.128906 38.96875 157.285156 39.46875 154.410156 39.46875 C 146.585938 39.46875 142.984375 34.796875 142.984375 28.539062 C 142.984375 21.320312 148.191406 17.515625 155.058594 17.515625 C 159.667969 17.515625 162.261719 18.882812 162.941406 19.316406 C 162.660156 20.085938 162.445312 20.890625 162.230469 21.691406 L 161.890625 21.691406 "/>
<path style=" stroke:none;fill-rule:nonzero;fill:rgb(13.729858%,12.159729%,12.548828%);fill-opacity:1;" d="M 171.066406 27.160156 L 175.863281 27.160156 C 176.792969 27.160156 177.691406 27.035156 178.621094 27.003906 C 178.589844 27.253906 178.546875 27.53125 178.546875 27.808594 C 178.546875 28.054688 178.589844 28.335938 178.621094 28.675781 C 177.691406 28.644531 176.792969 28.519531 175.863281 28.519531 L 171.066406 28.519531 L 171.066406 37.570312 C 172.953125 37.636719 174.8125 37.511719 176.671875 37.449219 C 177.628906 37.417969 178.558594 37.324219 179.519531 37.167969 C 179.488281 37.511719 179.433594 37.789062 179.433594 38.097656 C 179.433594 38.40625 179.488281 38.714844 179.519531 39.023438 L 168.347656 39.023438 L 168.347656 17.960938 L 179.332031 17.960938 C 179.300781 18.296875 179.246094 18.578125 179.246094 18.882812 C 179.246094 19.195312 179.300781 19.503906 179.332031 19.8125 C 178.40625 19.625 177.476562 19.535156 176.546875 19.472656 L 173.449219 19.410156 L 171.066406 19.410156 L 171.066406 27.160156 "/>
<path style=" stroke:none;fill-rule:nonzero;fill:rgb(13.729858%,12.159729%,12.548828%);fill-opacity:1;" d="M 203.011719 28.320312 C 203.230469 31.722656 200.882812 38.464844 194.359375 38.464844 C 189.753906 38.464844 185.921875 35.1875 185.921875 28.910156 C 185.921875 22.628906 189.199219 18.519531 194.636719 18.519531 C 197.109375 18.519531 199.519531 19.570312 201.066406 21.519531 C 202.671875 23.589844 203.011719 25.753906 203.011719 28.320312 Z M 194.269531 39.46875 C 201.160156 39.46875 206.058594 34.972656 206.058594 28.074219 C 206.058594 20.652344 200.140625 17.511719 194.328125 17.511719 C 187.929688 17.511719 182.878906 21.765625 182.878906 28.539062 C 182.878906 35.15625 187.4375 39.46875 194.269531 39.46875 "/>
<path style=" stroke:none;fill-rule:nonzero;fill:rgb(13.729858%,12.159729%,12.548828%);fill-opacity:1;" d="M 213.367188 19.101562 C 214.671875 19.039062 216.777344 18.945312 217.925781 19.128906 C 220.25 19.503906 221.335938 20.894531 221.335938 23.03125 C 221.335938 25.445312 219.628906 26.992188 217.367188 27.457031 C 215.785156 27.765625 213.804688 27.640625 213.367188 27.609375 Z M 210.652344 39.097656 C 211.085938 39.066406 211.546875 39.023438 212.011719 39.023438 C 212.445312 39.023438 212.875 39.066406 213.367188 39.097656 L 213.367188 28.789062 L 214.546875 28.789062 L 217.027344 31.691406 L 220.683594 36.417969 C 221.335938 37.285156 221.953125 38.148438 222.636719 39.097656 C 223.191406 39.066406 223.808594 39.023438 224.398438 39.023438 C 224.984375 39.023438 225.546875 39.066406 226.195312 39.097656 L 225.605469 38.332031 L 224.121094 36.605469 L 217.738281 28.539062 C 220.867188 27.984375 224.089844 26.25 224.089844 22.660156 C 224.089844 19.53125 221.984375 17.960938 217.210938 17.960938 L 210.652344 17.960938 L 210.652344 39.097656 "/>
<path style=" stroke:none;fill-rule:nonzero;fill:rgb(13.729858%,12.159729%,12.548828%);fill-opacity:1;" d="M 248.160156 21.691406 C 246.433594 19.71875 243.832031 18.699219 241.203125 18.699219 C 235.949219 18.699219 232.296875 22.15625 232.296875 28.382812 C 232.296875 34.488281 235.453125 38.285156 241.546875 38.285156 C 243.214844 38.285156 244.945312 37.976562 246.371094 37.234375 L 246.371094 29.308594 C 246.800781 29.339844 247.265625 29.386719 247.730469 29.386719 C 248.160156 29.386719 248.59375 29.339844 249.085938 29.308594 L 249.085938 38.035156 C 246.402344 38.96875 243.554688 39.46875 240.679688 39.46875 C 232.855469 39.46875 229.253906 34.796875 229.253906 28.539062 C 229.253906 21.320312 234.464844 17.515625 241.328125 17.515625 C 245.9375 17.515625 248.53125 18.882812 249.210938 19.316406 C 248.933594 20.085938 248.714844 20.890625 248.5 21.691406 L 248.160156 21.691406 "/>
<path style=" stroke:none;fill-rule:nonzero;fill:rgb(13.729858%,12.159729%,12.548828%);fill-opacity:1;" d="M 253.128906 31.210938 L 260.871094 31.210938 L 260.871094 33.140625 L 253.128906 33.140625 Z M 253.128906 31.210938 "/>
<path style=" stroke:none;fill-rule:nonzero;fill:rgb(13.729858%,12.159729%,12.548828%);fill-opacity:1;" d="M 275.867188 29.460938 L 269.0625 29.460938 L 272.433594 21.550781 Z M 273.546875 17.511719 L 272.835938 17.511719 L 263.183594 39.097656 C 263.523438 39.066406 263.863281 39.023438 264.265625 39.023438 C 264.636719 39.023438 264.976562 39.066406 265.410156 39.097656 C 266.277344 36.199219 267.394531 33.480469 268.476562 30.761719 L 276.328125 30.761719 C 277.570312 33.574219 278.683594 36.542969 279.582031 39.097656 C 280.105469 39.066406 280.636719 39.023438 281.222656 39.023438 C 281.75 39.023438 282.242188 39.066406 282.832031 39.097656 L 273.546875 17.511719 "/>
<path style=" stroke:none;fill-rule:nonzero;fill:rgb(13.729858%,12.159729%,12.548828%);fill-opacity:1;" d="M 289.441406 29.796875 C 289.441406 35.242188 290.988281 38.054688 296.292969 38.054688 C 301.222656 38.054688 302.992188 34.5 302.992188 29.488281 L 302.992188 17.960938 C 303.269531 17.988281 303.550781 18.03125 303.859375 18.03125 C 304.144531 18.03125 304.421875 17.988281 304.734375 17.960938 L 304.734375 30.261719 C 304.734375 36.386719 301.128906 39.46875 295.671875 39.46875 C 292.601562 39.46875 290.554688 38.761719 288.945312 37.3125 C 287 35.550781 286.753906 32.796875 286.722656 30.324219 L 286.722656 17.960938 C 287.152344 17.988281 287.617188 18.03125 288.082031 18.03125 C 288.511719 18.03125 288.945312 17.988281 289.441406 17.960938 L 289.441406 29.796875 "/>
<path style=" stroke:none;fill-rule:nonzero;fill:rgb(13.729858%,12.159729%,12.548828%);fill-opacity:1;" d="M 329.289062 21.691406 C 327.558594 19.71875 324.964844 18.699219 322.332031 18.699219 C 317.078125 18.699219 313.429688 22.15625 313.429688 28.382812 C 313.429688 34.488281 316.582031 38.285156 322.675781 38.285156 C 324.34375 38.285156 326.078125 37.976562 327.5 37.234375 L 327.5 29.308594 C 327.933594 29.339844 328.394531 29.386719 328.859375 29.386719 C 329.289062 29.386719 329.722656 29.339844 330.21875 29.308594 L 330.21875 38.035156 C 327.53125 38.96875 324.683594 39.46875 321.808594 39.46875 C 313.984375 39.46875 310.382812 34.796875 310.382812 28.539062 C 310.382812 21.320312 315.59375 17.515625 322.457031 17.515625 C 327.066406 17.515625 329.660156 18.882812 330.339844 19.316406 C 330.0625 20.085938 329.84375 20.890625 329.628906 21.691406 L 329.289062 21.691406 "/>
<path style=" stroke:none;fill-rule:nonzero;fill:rgb(13.729858%,12.159729%,12.548828%);fill-opacity:1;" d="M 338.613281 29.796875 C 338.613281 35.242188 340.164062 38.054688 345.46875 38.054688 C 350.394531 38.054688 352.164062 34.5 352.164062 29.488281 L 352.164062 17.960938 C 352.441406 17.988281 352.722656 18.03125 353.035156 18.03125 C 353.316406 18.03125 353.59375 17.988281 353.90625 17.960938 L 353.90625 30.261719 C 353.90625 36.386719 350.304688 39.46875 344.84375 39.46875 C 341.773438 39.46875 339.730469 38.761719 338.121094 37.3125 C 336.171875 35.550781 335.925781 32.796875 335.898438 30.324219 L 335.898438 17.960938 C 336.328125 17.988281 336.792969 18.03125 337.253906 18.03125 C 337.6875 18.03125 338.121094 17.988281 338.613281 17.960938 L 338.613281 29.796875 "/>
<path style=" stroke:none;fill-rule:nonzero;fill:rgb(13.729858%,12.159729%,12.548828%);fill-opacity:1;" d="M 359.890625 34.925781 C 361.097656 36.898438 362.488281 38.132812 364.898438 38.132812 C 367.402344 38.132812 369.195312 36.066406 369.195312 33.628906 C 369.195312 27.890625 359.515625 30.421875 359.515625 23.445312 C 359.515625 19.464844 362.675781 17.515625 366.382812 17.515625 C 367.867188 17.515625 369.660156 17.980469 370.8125 19.003906 C 370.4375 19.804688 370.222656 20.667969 369.972656 21.535156 L 369.660156 21.535156 C 369.011719 19.867188 367.652344 18.847656 365.824219 18.847656 C 363.695312 18.847656 361.933594 20.269531 361.933594 22.457031 C 361.933594 28.136719 371.683594 25.855469 371.683594 32.425781 C 371.683594 36.835938 368.238281 39.46875 364.035156 39.46875 C 362.519531 39.46875 360.042969 38.816406 358.988281 37.671875 C 359.300781 36.777344 359.453125 35.851562 359.578125 34.925781 L 359.890625 34.925781 "/>
<path style=" stroke:none;fill-rule:nonzero;fill:rgb(13.729858%,12.159729%,12.548828%);fill-opacity:1;" d="M 383.683594 39.160156 C 383.1875 39.128906 382.757812 39.109375 382.324219 39.109375 C 381.859375 39.109375 381.394531 39.128906 380.964844 39.160156 L 380.964844 19.445312 C 377.835938 19.445312 375.949219 19.632812 374.183594 19.816406 C 374.214844 19.507812 374.273438 19.199219 374.273438 18.886719 C 374.273438 18.578125 374.214844 18.300781 374.183594 17.960938 L 390.15625 17.960938 C 390.121094 18.300781 390.085938 18.578125 390.085938 18.886719 C 390.085938 19.199219 390.121094 19.507812 390.15625 19.816406 C 388.605469 19.632812 386.4375 19.445312 383.683594 19.445312 L 383.683594 39.160156 "/>
<path style=" stroke:none;fill-rule:nonzero;fill:rgb(13.729858%,12.159729%,12.548828%);fill-opacity:1;" d="M 389.886719 31.210938 L 397.632812 31.210938 L 397.632812 33.140625 L 389.886719 33.140625 Z M 389.886719 31.210938 "/>
<path style=" stroke:none;fill-rule:nonzero;fill:rgb(13.729858%,12.159729%,12.548828%);fill-opacity:1;" d="M 405.050781 29.796875 C 405.050781 35.242188 406.597656 38.054688 411.902344 38.054688 C 416.832031 38.054688 418.601562 34.5 418.601562 29.488281 L 418.601562 17.960938 C 418.878906 17.988281 419.160156 18.03125 419.472656 18.03125 C 419.75 18.03125 420.03125 17.988281 420.34375 17.960938 L 420.34375 30.261719 C 420.34375 36.386719 416.738281 39.46875 411.28125 39.46875 C 408.214844 39.46875 406.164062 38.761719 404.554688 37.3125 C 402.613281 35.550781 402.363281 32.796875 402.332031 30.324219 L 402.332031 17.960938 C 402.765625 17.988281 403.226562 18.03125 403.691406 18.03125 C 404.121094 18.03125 404.554688 17.988281 405.050781 17.960938 L 405.050781 29.796875 "/>
<path style=" stroke:none;fill-rule:nonzero;fill:rgb(13.729858%,12.159729%,12.548828%);fill-opacity:1;" d="M 445.078125 39.097656 L 444.144531 39.097656 C 443.804688 38.667969 443.179688 37.933594 442.53125 37.222656 L 429.160156 22.4375 L 428.851562 22.4375 L 428.851562 39.097656 C 428.539062 39.066406 428.261719 39.023438 427.980469 39.023438 C 427.667969 39.023438 427.390625 39.066406 427.109375 39.097656 L 427.109375 17.960938 L 428.324219 17.960938 L 443.027344 33.878906 L 443.335938 33.878906 L 443.335938 17.960938 C 443.613281 17.988281 443.894531 18.03125 444.207031 18.03125 C 444.488281 18.03125 444.765625 17.988281 445.078125 17.960938 L 445.078125 39.097656 "/>
<path style=" stroke:none;fill-rule:nonzero;fill:rgb(13.729858%,12.159729%,12.548828%);fill-opacity:1;" d="M 451.542969 17.960938 C 451.976562 17.988281 452.4375 18.03125 452.902344 18.03125 C 453.335938 18.03125 453.765625 17.988281 454.261719 17.960938 L 454.261719 39.097656 C 453.765625 39.066406 453.335938 39.023438 452.902344 39.023438 C 452.4375 39.023438 451.976562 39.066406 451.542969 39.097656 L 451.542969 17.960938 "/>
<path style=" stroke:none;fill-rule:nonzero;fill:rgb(13.729858%,12.159729%,12.548828%);fill-opacity:1;" d="M 473.738281 23.609375 L 475.59375 18.449219 L 475.8125 17.960938 C 476.183594 17.988281 476.554688 18.03125 476.960938 18.03125 C 477.296875 18.03125 477.671875 17.988281 478.074219 17.960938 C 477.082031 19.835938 470.238281 35.675781 469.125 39.097656 C 468.90625 39.066406 468.6875 39.023438 468.503906 39.023438 C 468.285156 39.023438 468.066406 39.066406 467.847656 39.097656 C 464.316406 31.839844 459.792969 20.578125 458.433594 17.960938 C 458.894531 17.988281 459.421875 18.03125 459.917969 18.03125 C 460.414062 18.03125 460.878906 17.988281 461.4375 17.960938 C 461.839844 18.910156 462.207031 19.929688 462.582031 20.949219 L 464.65625 26.363281 L 468.472656 35.734375 L 468.75 35.734375 C 469.339844 34.46875 469.992188 33.261719 470.484375 31.992188 L 473.738281 23.609375 "/>
<path style=" stroke:none;fill-rule:nonzero;fill:rgb(13.729858%,12.159729%,12.548828%);fill-opacity:1;" d="M 484.328125 27.160156 L 489.128906 27.160156 C 490.058594 27.160156 490.953125 27.035156 491.882812 27.003906 C 491.851562 27.253906 491.808594 27.53125 491.808594 27.808594 C 491.808594 28.054688 491.851562 28.335938 491.882812 28.675781 C 490.953125 28.644531 490.058594 28.519531 489.128906 28.519531 L 484.328125 28.519531 L 484.328125 37.570312 C 486.21875 37.636719 488.074219 37.511719 489.933594 37.449219 C 490.894531 37.417969 491.820312 37.324219 492.78125 37.167969 C 492.75 37.511719 492.695312 37.789062 492.695312 38.097656 C 492.695312 38.40625 492.75 38.714844 492.78125 39.023438 L 481.613281 39.023438 L 481.613281 17.960938 L 492.597656 17.960938 C 492.566406 18.296875 492.511719 18.578125 492.511719 18.882812 C 492.511719 19.195312 492.566406 19.503906 492.597656 19.8125 C 491.667969 19.625 490.738281 19.535156 489.808594 19.472656 L 486.710938 19.410156 L 484.328125 19.410156 L 484.328125 27.160156 "/>
<path style=" stroke:none;fill-rule:nonzero;fill:rgb(13.729858%,12.159729%,12.548828%);fill-opacity:1;" d="M 500.34375 19.101562 C 501.644531 19.039062 503.75 18.945312 504.898438 19.128906 C 507.222656 19.503906 508.308594 20.894531 508.308594 23.03125 C 508.308594 25.445312 506.605469 26.992188 504.34375 27.457031 C 502.761719 27.765625 500.777344 27.640625 500.34375 27.609375 Z M 497.625 39.097656 C 498.058594 39.066406 498.519531 39.023438 498.984375 39.023438 C 499.417969 39.023438 499.847656 39.066406 500.34375 39.097656 L 500.34375 28.789062 L 501.519531 28.789062 L 504 31.691406 L 507.65625 36.417969 C 508.308594 37.285156 508.925781 38.144531 509.609375 39.097656 C 510.164062 39.066406 510.78125 39.023438 511.371094 39.023438 C 511.957031 39.023438 512.519531 39.066406 513.167969 39.097656 L 512.582031 38.332031 L 511.09375 36.605469 L 504.710938 28.539062 C 507.84375 27.984375 511.0625 26.25 511.0625 22.660156 C 511.0625 19.53125 508.957031 17.960938 504.1875 17.960938 L 497.625 17.960938 L 497.625 39.097656 "/>
<path style=" stroke:none;fill-rule:nonzero;fill:rgb(13.729858%,12.159729%,12.548828%);fill-opacity:1;" d="M 516.558594 34.925781 C 517.765625 36.898438 519.160156 38.132812 521.570312 38.132812 C 524.074219 38.132812 525.867188 36.066406 525.867188 33.628906 C 525.867188 27.890625 516.1875 30.421875 516.1875 23.445312 C 516.1875 19.464844 519.347656 17.515625 523.054688 17.515625 C 524.535156 17.515625 526.332031 17.980469 527.484375 19.003906 C 527.109375 19.804688 526.890625 20.667969 526.640625 21.535156 L 526.332031 21.535156 C 525.679688 19.867188 524.320312 18.847656 522.496094 18.847656 C 520.367188 18.847656 518.601562 20.269531 518.601562 22.457031 C 518.601562 28.136719 528.351562 25.855469 528.351562 32.425781 C 528.351562 36.835938 524.90625 39.46875 520.703125 39.46875 C 519.191406 39.46875 516.714844 38.816406 515.660156 37.671875 C 515.96875 36.777344 516.125 35.851562 516.25 34.925781 L 516.558594 34.925781 "/>
<path style=" stroke:none;fill-rule:nonzero;fill:rgb(13.729858%,12.159729%,12.548828%);fill-opacity:1;" d="M 533.167969 17.960938 C 533.601562 17.988281 534.066406 18.03125 534.527344 18.03125 C 534.960938 18.03125 535.390625 17.988281 535.886719 17.960938 L 535.886719 39.097656 C 535.390625 39.066406 534.960938 39.023438 534.527344 39.023438 C 534.066406 39.023438 533.601562 39.066406 533.167969 39.097656 L 533.167969 17.960938 "/>
<path style=" stroke:none;fill-rule:nonzero;fill:rgb(13.729858%,12.159729%,12.548828%);fill-opacity:1;" d="M 549.457031 39.160156 C 548.964844 39.128906 548.53125 39.109375 548.097656 39.109375 C 547.636719 39.109375 547.171875 39.128906 546.738281 39.160156 L 546.738281 19.445312 C 543.613281 19.445312 541.722656 19.632812 539.957031 19.816406 C 539.988281 19.507812 540.046875 19.199219 540.046875 18.886719 C 540.046875 18.578125 539.988281 18.300781 539.957031 17.960938 L 555.929688 17.960938 C 555.894531 18.300781 555.863281 18.578125 555.863281 18.886719 C 555.863281 19.199219 555.894531 19.507812 555.929688 19.816406 C 554.378906 19.632812 552.210938 19.445312 549.457031 19.445312 L 549.457031 39.160156 "/>
<path style=" stroke:none;fill-rule:nonzero;fill:rgb(13.729858%,12.159729%,12.548828%);fill-opacity:1;" d="M 570.238281 29.460938 L 563.441406 29.460938 L 566.808594 21.550781 Z M 570.386719 15.59375 C 571.128906 15.59375 571.816406 14.914062 571.816406 14.167969 C 571.816406 13.417969 571.164062 12.738281 570.386719 12.738281 C 569.609375 12.738281 568.957031 13.417969 568.957031 14.167969 C 568.957031 14.914062 569.640625 15.59375 570.386719 15.59375 Z M 564.320312 15.59375 C 565.066406 15.59375 565.75 14.945312 565.75 14.167969 C 565.75 13.390625 565.097656 12.738281 564.320312 12.738281 C 563.542969 12.738281 562.890625 13.417969 562.890625 14.167969 C 562.890625 14.914062 563.574219 15.59375 564.320312 15.59375 Z M 567.921875 17.511719 L 567.210938 17.511719 L 557.558594 39.097656 C 557.894531 39.066406 558.238281 39.023438 558.640625 39.023438 C 559.011719 39.023438 559.351562 39.066406 559.789062 39.097656 C 560.652344 36.199219 561.765625 33.480469 562.851562 30.761719 L 570.703125 30.761719 C 571.941406 33.574219 573.058594 36.542969 573.957031 39.097656 C 574.480469 39.066406 575.011719 39.023438 575.597656 39.023438 C 576.121094 39.023438 576.617188 39.066406 577.207031 39.097656 L 567.921875 17.511719 "/>
<path style=" stroke:none;fill-rule:nonzero;fill:rgb(13.729858%,12.159729%,12.548828%);fill-opacity:1;" d="M 588.316406 39.160156 C 587.824219 39.128906 587.390625 39.109375 586.960938 39.109375 C 586.496094 39.109375 586.03125 39.128906 585.601562 39.160156 L 585.601562 19.445312 C 582.472656 19.445312 580.585938 19.632812 578.820312 19.816406 C 578.851562 19.507812 578.910156 19.199219 578.910156 18.886719 C 578.910156 18.578125 578.851562 18.300781 578.820312 17.960938 L 594.789062 17.960938 C 594.757812 18.300781 594.722656 18.578125 594.722656 18.886719 C 594.722656 19.199219 594.757812 19.507812 594.789062 19.816406 C 593.242188 19.632812 591.074219 19.445312 588.316406 19.445312 L 588.316406 39.160156 "/>
<path style=" stroke:none;fill-rule:nonzero;fill:rgb(13.729858%,12.159729%,12.548828%);fill-opacity:1;" d="M 161.890625 63.972656 C 160.160156 62 157.5625 60.976562 154.933594 60.976562 C 149.675781 60.976562 146.027344 64.433594 146.027344 70.664062 C 146.027344 76.765625 149.183594 80.5625 155.273438 80.5625 C 156.945312 80.5625 158.675781 80.253906 160.097656 79.515625 L 160.097656 71.589844 C 160.53125 71.621094 160.996094 71.664062 161.457031 71.664062 C 161.890625 71.664062 162.320312 71.621094 162.816406 71.589844 L 162.816406 80.316406 C 160.128906 81.246094 157.285156 81.746094 154.410156 81.746094 C 146.585938 81.746094 142.984375 77.078125 142.984375 70.820312 C 142.984375 63.601562 148.191406 59.796875 155.058594 59.796875 C 159.667969 59.796875 162.261719 61.164062 162.941406 61.597656 C 162.660156 62.367188 162.445312 63.167969 162.230469 63.972656 L 161.890625 63.972656 "/>
<path style=" stroke:none;fill-rule:nonzero;fill:rgb(13.729858%,12.159729%,12.548828%);fill-opacity:1;" d="M 187.40625 70.605469 C 187.625 74 185.273438 80.746094 178.75 80.746094 C 174.148438 80.746094 170.316406 77.464844 170.316406 71.1875 C 170.316406 64.910156 173.589844 60.796875 179.03125 60.796875 C 181.503906 60.796875 183.914062 61.847656 185.457031 63.796875 C 187.066406 65.871094 187.40625 68.035156 187.40625 70.605469 Z M 181.875 57.875 C 182.621094 57.875 183.304688 57.191406 183.304688 56.445312 C 183.304688 55.699219 182.652344 55.015625 181.875 55.015625 C 181.097656 55.015625 180.445312 55.699219 180.445312 56.445312 C 180.445312 57.191406 181.128906 57.875 181.875 57.875 Z M 175.808594 57.875 C 176.554688 57.875 177.238281 57.222656 177.238281 56.445312 C 177.238281 55.671875 176.589844 55.015625 175.808594 55.015625 C 175.035156 55.015625 174.378906 55.699219 174.378906 56.445312 C 174.378906 57.191406 175.0625 57.875 175.808594 57.875 Z M 178.660156 81.753906 C 185.550781 81.753906 190.449219 77.25 190.449219 70.355469 C 190.449219 62.929688 184.535156 59.792969 178.722656 59.792969 C 172.324219 59.792969 167.269531 64.042969 167.269531 70.820312 C 167.269531 77.4375 171.832031 81.753906 178.660156 81.753906 "/>
<path style=" stroke:none;fill-rule:nonzero;fill:rgb(13.729858%,12.159729%,12.548828%);fill-opacity:1;" d="M 202.75 81.441406 C 202.253906 81.410156 201.824219 81.390625 201.390625 81.390625 C 200.925781 81.390625 200.464844 81.410156 200.03125 81.441406 L 200.03125 61.722656 C 196.90625 61.722656 195.019531 61.910156 193.25 62.097656 C 193.28125 61.789062 193.34375 61.480469 193.34375 61.167969 C 193.34375 60.859375 193.28125 60.582031 193.25 60.242188 L 209.222656 60.242188 C 209.191406 60.582031 209.15625 60.859375 209.15625 61.167969 C 209.15625 61.480469 209.191406 61.789062 209.222656 62.097656 C 207.671875 61.910156 205.507812 61.722656 202.75 61.722656 L 202.75 81.441406 "/>
<path style=" stroke:none;fill-rule:nonzero;fill:rgb(13.729858%,12.159729%,12.548828%);fill-opacity:1;" d="M 220.832031 81.441406 C 220.339844 81.410156 219.90625 81.390625 219.472656 81.390625 C 219.011719 81.390625 218.546875 81.410156 218.117188 81.441406 L 218.117188 61.722656 C 214.988281 61.722656 213.101562 61.910156 211.335938 62.097656 C 211.367188 61.789062 211.425781 61.480469 211.425781 61.167969 C 211.425781 60.859375 211.367188 60.582031 211.335938 60.242188 L 227.304688 60.242188 C 227.273438 60.582031 227.238281 60.859375 227.238281 61.167969 C 227.238281 61.480469 227.273438 61.789062 227.304688 62.097656 C 225.757812 61.910156 223.589844 61.722656 220.832031 61.722656 L 220.832031 81.441406 "/>
<path style=" stroke:none;fill-rule:nonzero;fill:rgb(13.729858%,12.159729%,12.548828%);fill-opacity:1;" d="M 231.738281 60.238281 C 232.167969 60.269531 232.628906 60.3125 233.09375 60.3125 C 233.527344 60.3125 233.957031 60.269531 234.449219 60.238281 L 234.449219 81.378906 C 233.957031 81.347656 233.527344 81.304688 233.09375 81.304688 C 232.628906 81.304688 232.167969 81.347656 231.738281 81.378906 L 231.738281 60.238281 "/>
<path style=" stroke:none;fill-rule:nonzero;fill:rgb(13.729858%,12.159729%,12.548828%);fill-opacity:1;" d="M 259.328125 81.378906 L 258.398438 81.378906 C 258.054688 80.949219 257.433594 80.210938 256.78125 79.5 L 243.414062 64.714844 L 243.101562 64.714844 L 243.101562 81.378906 C 242.792969 81.347656 242.511719 81.304688 242.234375 81.304688 C 241.921875 81.304688 241.640625 81.347656 241.359375 81.378906 L 241.359375 60.238281 L 242.574219 60.238281 L 257.277344 76.160156 L 257.589844 76.160156 L 257.589844 60.238281 C 257.871094 60.269531 258.148438 60.3125 258.460938 60.3125 C 258.738281 60.3125 259.019531 60.269531 259.328125 60.238281 L 259.328125 81.378906 "/>
<path style=" stroke:none;fill-rule:nonzero;fill:rgb(13.729858%,12.159729%,12.548828%);fill-opacity:1;" d="M 284.109375 63.972656 C 282.382812 62 279.78125 60.976562 277.152344 60.976562 C 271.898438 60.976562 268.25 64.433594 268.25 70.664062 C 268.25 76.765625 271.402344 80.5625 277.496094 80.5625 C 279.164062 80.5625 280.898438 80.253906 282.320312 79.515625 L 282.320312 71.589844 C 282.75 71.621094 283.214844 71.664062 283.679688 71.664062 C 284.109375 71.664062 284.542969 71.621094 285.035156 71.589844 L 285.035156 80.316406 C 282.351562 81.246094 279.507812 81.746094 276.628906 81.746094 C 268.804688 81.746094 265.203125 77.078125 265.203125 70.820312 C 265.203125 63.601562 270.414062 59.796875 277.277344 59.796875 C 281.886719 59.796875 284.480469 61.164062 285.160156 61.597656 C 284.882812 62.367188 284.664062 63.167969 284.449219 63.972656 L 284.109375 63.972656 "/>
<path style=" stroke:none;fill-rule:nonzero;fill:rgb(13.729858%,12.159729%,12.548828%);fill-opacity:1;" d="M 293.65625 69.4375 L 298.457031 69.4375 C 299.386719 69.4375 300.285156 69.316406 301.210938 69.285156 C 301.179688 69.53125 301.136719 69.808594 301.136719 70.089844 C 301.136719 70.335938 301.179688 70.613281 301.210938 70.957031 C 300.285156 70.925781 299.386719 70.800781 298.457031 70.800781 L 293.65625 70.800781 L 293.65625 79.855469 C 295.546875 79.914062 297.402344 79.792969 299.261719 79.726562 C 300.21875 79.695312 301.152344 79.601562 302.109375 79.449219 C 302.078125 79.792969 302.023438 80.070312 302.023438 80.378906 C 302.023438 80.683594 302.078125 80.996094 302.109375 81.304688 L 290.9375 81.304688 L 290.9375 60.238281 L 301.921875 60.238281 C 301.894531 60.578125 301.839844 60.855469 301.839844 61.164062 C 301.839844 61.476562 301.894531 61.78125 301.921875 62.089844 C 300.996094 61.90625 300.066406 61.8125 299.136719 61.75 L 296.042969 61.691406 L 293.65625 61.691406 L 293.65625 69.4375 "/>
<path style=" stroke:none;fill-rule:nonzero;fill:rgb(13.729858%,12.159729%,12.548828%);fill-opacity:1;" d="M 325.597656 81.378906 L 324.664062 81.378906 C 324.320312 80.949219 323.699219 80.210938 323.050781 79.5 L 309.679688 64.714844 L 309.367188 64.714844 L 309.367188 81.378906 C 309.058594 81.347656 308.777344 81.304688 308.5 81.304688 C 308.1875 81.304688 307.910156 81.347656 307.625 81.378906 L 307.625 60.238281 L 308.839844 60.238281 L 323.546875 76.160156 L 323.855469 76.160156 L 323.855469 60.238281 C 324.132812 60.269531 324.414062 60.3125 324.726562 60.3125 C 325.007812 60.3125 325.285156 60.269531 325.597656 60.238281 L 325.597656 81.378906 "/>
</g>
</svg>
