<?xml version="1.0" encoding="UTF-8" standalone="no"?>
<!DOCTYPE svg PUBLIC "-//W3C//DTD SVG 1.1//EN" "http://www.w3.org/Graphics/SVG/1.1/DTD/svg11.dtd">
<svg width="100%" height="100%" viewBox="0 0 590 134" version="1.1" xmlns="http://www.w3.org/2000/svg" xmlns:xlink="http://www.w3.org/1999/xlink" xml:space="preserve" xmlns:serif="http://www.serif.com/" style="fill-rule:evenodd;clip-rule:evenodd;stroke-linejoin:round;stroke-miterlimit:2;">
    <g>
        <path d="M341.946,84.442C341.434,83.555 340.808,83.168 339.896,83.168C338.597,83.168 337.619,84.032 337.619,85.194C337.619,86.037 338.131,86.664 339.178,87.108L339.417,87.21L339.657,87.313L339.908,87.416C340.101,87.495 340.295,87.598 340.466,87.712C340.808,87.951 340.99,88.281 340.99,88.714C340.99,89.443 340.466,89.979 339.748,89.979C339.281,89.979 338.848,89.751 338.654,89.386C338.54,89.193 338.495,89.01 338.438,88.555L337.277,88.817C337.482,90.24 338.381,91.059 339.737,91.059C341.115,91.059 342.139,90.013 342.139,88.6C342.139,87.586 341.582,86.903 340.363,86.39C339.281,85.957 339.383,86.003 339.144,85.832C338.893,85.661 338.779,85.445 338.779,85.194C338.779,84.659 339.258,84.248 339.885,84.248C340.409,84.248 340.671,84.419 341.024,85L341.946,84.442ZM348.271,84.397L348.271,83.316L344.081,83.316L344.081,90.911L348.271,90.911L348.271,89.831L345.23,89.831L345.23,87.301L348.18,87.301L348.18,86.22L345.23,86.22L345.23,84.397L348.271,84.397ZM351.535,83.316L350.386,83.316L350.386,90.911L351.535,90.911L351.535,83.316ZM355.931,84.397L357.674,84.397L357.674,83.316L353.04,83.316L353.04,84.397L354.783,84.397L354.783,90.911L355.931,90.911L355.931,84.397ZM363.996,84.385L363.996,90.911L365.145,90.911L365.145,83.316L363.313,83.316L362.687,84.385L363.996,84.385ZM371.08,84.385L367.288,90.592L368.199,91.173L372.992,83.316L367.333,83.316L367.333,84.385L371.08,84.385ZM375.626,87.381C376.093,87.393 376.264,87.416 376.48,87.507C376.901,87.678 377.152,88.122 377.152,88.68C377.152,89.432 376.605,89.99 375.876,89.99C375.136,89.99 374.669,89.591 374.555,88.851L373.45,88.851C373.496,89.341 373.553,89.58 373.701,89.876C374.088,90.593 374.897,91.037 375.808,91.037C377.266,91.037 378.278,90.081 378.278,88.726C378.278,87.894 377.96,87.279 377.345,86.903C377.903,86.516 378.164,85.98 378.164,85.262C378.164,84.055 377.232,83.191 375.911,83.191C374.589,83.191 373.883,83.828 373.644,85.251L374.783,85.251C374.942,84.499 375.25,84.226 375.888,84.226C376.583,84.226 377.049,84.681 377.049,85.342C377.049,85.764 376.822,86.162 376.491,86.299C376.298,86.39 376.127,86.402 375.626,86.402L375.626,87.381ZM383.578,84.385L379.786,90.592L380.697,91.173L385.491,83.316L379.832,83.316L379.832,84.385L383.578,84.385Z" style="fill:rgb(0,147,201);fill-rule:nonzero;"/>
        <path d="M338.802,70.916L337.653,70.916L337.653,78.511L338.802,78.511L338.802,70.916ZM341.184,78.512L342.333,78.512L342.333,73.193L347.868,78.979L347.868,70.915L346.719,70.915L346.719,76.189L341.184,70.403L341.184,78.512ZM354.827,75.425L355.362,75.425C356.935,75.425 357.936,74.549 357.936,73.171C357.936,72.475 357.617,71.792 357.106,71.393C356.616,71.029 356.137,70.916 354.975,70.916L353.678,70.916L353.678,78.511L354.827,78.511L354.827,75.425ZM354.827,74.367L354.827,71.974L355.203,71.974C356.297,71.974 356.833,72.362 356.833,73.136C356.833,73.968 356.32,74.367 355.248,74.367L354.827,74.367ZM360.675,70.916L359.526,70.916L359.526,75.802C359.526,77.442 360.721,78.659 362.339,78.659C363.945,78.659 365.14,77.442 365.14,75.802L365.14,70.916L363.991,70.916L363.991,75.494C363.991,76.166 363.934,76.485 363.751,76.804C363.478,77.283 362.931,77.579 362.339,77.579C361.735,77.579 361.188,77.283 360.914,76.804C360.732,76.485 360.675,76.166 360.675,75.494L360.675,70.916ZM367.517,78.511L369.259,78.511C370.284,78.511 370.762,78.375 371.263,77.965C371.753,77.556 372.026,76.975 372.026,76.325C372.026,75.436 371.525,74.708 370.729,74.424C371.149,74.048 371.342,73.604 371.342,73.068C371.342,72.362 371.001,71.666 370.478,71.302C370.079,71.029 369.566,70.916 368.654,70.916L367.517,70.916L367.517,78.511ZM368.666,74.185L368.666,71.974L369.065,71.974C369.84,71.974 370.262,72.362 370.262,73.068C370.262,73.797 369.84,74.185 369.019,74.185L368.666,74.185ZM368.666,77.431L368.666,75.14L369.247,75.14C370.353,75.14 370.9,75.527 370.9,76.314C370.9,77.02 370.353,77.431 369.373,77.431L368.666,77.431ZM375.129,70.916L373.98,70.916L373.98,78.511L377.362,78.511L377.362,77.431L375.129,77.431L375.129,70.916ZM380.505,70.916L379.356,70.916L379.356,78.511L380.505,78.511L380.505,70.916ZM388.246,71.325C387.54,70.916 387.016,70.768 386.207,70.768C384.066,70.768 382.257,72.566 382.257,74.697C382.257,76.929 383.987,78.659 386.207,78.659C386.914,78.659 387.574,78.477 388.246,78.091L388.246,76.713C387.517,77.328 386.936,77.579 386.23,77.579C384.624,77.579 383.406,76.348 383.406,74.731C383.406,73.124 384.636,71.848 386.185,71.848C386.948,71.848 387.529,72.088 388.246,72.68L388.246,71.325ZM394.601,76.666L395.398,78.511L396.65,78.511L393.029,70.438L389.271,78.511L390.501,78.511L391.355,76.666L394.601,76.666ZM394.134,75.586L391.833,75.586L393.006,73.012L394.134,75.586ZM407.208,71.325C406.502,70.916 405.978,70.768 405.17,70.768C403.028,70.768 401.219,72.566 401.219,74.697C401.219,76.929 402.949,78.659 405.17,78.659C405.876,78.659 406.536,78.477 407.208,78.091L407.208,76.713C406.479,77.328 405.898,77.579 405.192,77.579C403.586,77.579 402.368,76.348 402.368,74.731C402.368,73.124 403.598,71.848 405.147,71.848C405.91,71.848 406.491,72.088 407.208,72.68L407.208,71.325ZM412.664,70.768C410.454,70.768 408.679,72.543 408.679,74.742C408.679,76.941 410.431,78.659 412.664,78.659C414.84,78.659 416.616,76.884 416.616,74.719C416.616,72.543 414.84,70.768 412.664,70.768ZM412.653,71.848C414.248,71.848 415.467,73.09 415.467,74.731C415.467,76.303 414.214,77.579 412.653,77.579C411.081,77.579 409.828,76.326 409.828,74.731C409.828,73.102 411.058,71.848 412.653,71.848ZM417.832,78.512L419.017,78.512L419.837,73.922L422.023,78.865L424.266,73.933L424.995,78.512L426.168,78.512L424.733,70.346L422.034,76.245L419.427,70.346L417.832,78.512ZM427.856,78.512L429.04,78.512L429.86,73.922L432.047,78.865L434.29,73.933L435.019,78.512L436.192,78.512L434.757,70.346L432.058,76.245L429.45,70.346L427.856,78.512ZM441.497,70.768C439.287,70.768 437.512,72.543 437.512,74.742C437.512,76.941 439.265,78.659 441.497,78.659C443.673,78.659 445.449,76.884 445.449,74.719C445.449,72.543 443.673,70.768 441.497,70.768ZM441.486,71.848C443.081,71.848 444.3,73.09 444.3,74.731C444.3,76.303 443.047,77.579 441.486,77.579C439.914,77.579 438.661,76.326 438.661,74.731C438.661,73.102 439.891,71.848 441.486,71.848ZM447.341,78.511L448.911,78.511C450.267,78.511 450.928,78.341 451.691,77.783C452.682,77.066 453.216,76.007 453.216,74.731C453.216,73.432 452.704,72.35 451.748,71.655C451.008,71.121 450.244,70.916 448.934,70.916L447.341,70.916L447.341,78.511ZM448.49,77.431L448.49,71.997L449.002,71.997C449.925,71.997 450.529,72.156 451.031,72.532C451.68,73.01 452.067,73.819 452.067,74.708C452.067,75.608 451.691,76.394 451.031,76.884C450.495,77.271 449.925,77.431 449.002,77.431L448.49,77.431ZM459.162,76.666L459.959,78.511L461.212,78.511L457.591,70.438L453.833,78.511L455.063,78.511L455.917,76.666L459.162,76.666ZM458.695,75.586L456.395,75.586L457.568,73.012L458.695,75.586Z" style="fill:rgb(0,147,201);fill-rule:nonzero;"/>
        <path d="M181.459,80.882L181.459,82.952L187.399,82.952C187.309,84.182 187.099,84.962 186.589,85.772C185.389,87.782 182.839,89.192 180.439,89.192C175.999,89.192 172.309,85.502 172.309,81.002C172.309,76.352 175.969,72.692 180.619,72.692C183.259,72.692 185.329,73.862 187.279,76.442L188.929,74.942C186.379,71.912 183.889,70.592 180.619,70.592C174.739,70.592 170.059,75.182 170.059,80.972C170.059,86.612 174.709,91.292 180.319,91.292C183.289,91.292 186.139,89.942 187.939,87.692C189.289,86.012 189.799,84.242 189.799,81.392L189.799,80.882L181.459,80.882ZM203.065,70.592C197.335,70.592 192.625,75.272 192.625,80.972C192.625,86.672 197.305,91.292 203.065,91.292C208.735,91.292 213.445,86.612 213.445,80.942C213.445,75.272 208.735,70.592 203.065,70.592ZM203.035,72.692C207.565,72.692 211.195,76.382 211.195,80.972C211.195,85.502 207.535,89.192 203.035,89.192C198.535,89.192 194.875,85.502 194.875,80.972C194.875,76.352 198.505,72.692 203.035,72.692ZM200.185,65.882C199.345,65.882 198.655,66.572 198.655,67.412C198.655,68.252 199.345,68.942 200.185,68.942C201.025,68.942 201.715,68.252 201.715,67.412C201.715,66.572 201.025,65.882 200.185,65.882ZM205.885,65.882C205.045,65.882 204.355,66.572 204.355,67.412C204.355,68.252 205.045,68.942 205.885,68.942C206.725,68.942 207.415,68.252 207.415,67.412C207.415,66.572 206.725,65.882 205.885,65.882ZM221.095,72.992L225.955,72.992L225.955,70.922L214.015,70.922L214.015,72.992L218.845,72.992L218.845,90.932L221.095,90.932L221.095,72.992ZM234.75,72.992L239.61,72.992L239.61,70.922L227.67,70.922L227.67,72.992L232.5,72.992L232.5,90.932L234.75,90.932L234.75,72.992ZM244.653,70.922L242.403,70.922L242.403,90.932L244.653,90.932L244.653,70.922ZM249.776,90.932L252.026,90.932L252.026,75.512L267.596,91.832L267.596,70.922L265.346,70.922L265.346,86.432L249.776,70.082L249.776,90.932ZM283.01,80.882L283.01,82.952L288.95,82.952C288.86,84.182 288.65,84.962 288.14,85.772C286.94,87.782 284.39,89.192 281.99,89.192C277.55,89.192 273.86,85.502 273.86,81.002C273.86,76.352 277.52,72.692 282.17,72.692C284.81,72.692 286.88,73.862 288.83,76.442L290.48,74.942C287.93,71.912 285.44,70.592 282.17,70.592C276.29,70.592 271.61,75.182 271.61,80.972C271.61,86.612 276.26,91.292 281.87,91.292C284.84,91.292 287.69,89.942 289.49,87.692C290.84,86.012 291.35,84.242 291.35,81.392L291.35,80.882L283.01,80.882ZM305.681,72.992L305.681,70.922L295.331,70.922L295.331,90.932L305.681,90.932L305.681,88.862L297.581,88.862L297.581,81.032L305.471,81.032L305.471,78.962L297.581,78.962L297.581,72.992L305.681,72.992ZM309.632,90.932L311.882,90.932L311.882,75.512L327.452,91.832L327.452,70.922L325.202,70.922L325.202,86.432L309.632,70.082L309.632,90.932Z" style="fill:rgb(35,31,32);fill-rule:nonzero;"/>
        <path d="M391.397,36.922L389.147,36.922L389.147,49.792C389.147,51.982 389.507,53.302 390.467,54.532C391.757,56.242 393.977,57.292 396.287,57.292C398.567,57.292 400.757,56.242 402.077,54.532C403.037,53.302 403.397,51.952 403.397,49.792L403.397,36.922L401.147,36.922L401.147,49.192C401.147,51.262 400.997,52.162 400.487,53.032C399.707,54.292 397.997,55.192 396.287,55.192C394.547,55.192 392.837,54.292 392.057,53.032C391.547,52.162 391.397,51.262 391.397,49.192L391.397,36.922ZM408.526,56.932L410.776,56.932L410.776,41.512L426.346,57.832L426.346,36.922L424.096,36.922L424.096,52.432L408.526,36.082L408.526,56.932ZM433.765,36.922L431.515,36.922L431.515,56.932L433.765,56.932L433.765,36.922ZM438.886,36.922L436.426,36.922L444.526,58.102L452.656,36.922L450.226,36.922L444.556,52.162L438.886,36.922ZM465.697,38.992L465.697,36.922L455.346,36.922L455.346,56.932L465.697,56.932L465.697,54.862L457.596,54.862L457.596,47.032L465.487,47.032L465.487,44.962L457.596,44.962L457.596,38.992L465.697,38.992ZM474.867,47.992C477.957,47.692 479.907,45.562 479.907,42.442C479.907,40.642 479.037,38.932 477.687,38.002C476.547,37.222 475.167,36.922 472.887,36.922L469.647,36.922L469.647,56.932L471.897,56.932L471.897,48.172L472.467,48.172L478.497,56.932L481.227,56.932L474.867,47.992ZM471.897,46.192L471.897,38.992L473.217,38.992C476.157,38.992 477.717,40.192 477.717,42.442C477.717,44.902 476.187,46.192 473.307,46.192L471.897,46.192ZM494.688,39.712C493.488,37.642 491.778,36.592 489.528,36.592C486.348,36.592 483.918,38.812 483.918,41.722C483.918,43.972 485.088,45.382 487.968,46.672L488.568,46.942L489.168,47.212L489.768,47.512C490.428,47.782 490.998,48.082 491.508,48.412C492.618,49.102 493.158,50.032 493.158,51.262C493.158,53.482 491.388,55.192 489.078,55.192C486.978,55.192 485.598,53.932 485.058,51.532L482.898,52.132C483.678,55.432 485.898,57.292 489.108,57.292C492.648,57.292 495.408,54.562 495.408,51.112C495.408,48.622 494.088,47.032 490.878,45.622L490.248,45.352L489.618,45.082L488.988,44.782C488.418,44.542 487.908,44.242 487.428,43.942C486.588,43.372 486.168,42.652 486.168,41.782C486.168,40.012 487.608,38.692 489.468,38.692C491.028,38.692 491.898,39.232 492.918,40.852L494.688,39.712ZM501.657,36.922L499.407,36.922L499.407,56.932L501.657,56.932L501.657,36.922ZM511.485,38.992L516.344,38.992L516.344,36.922L504.405,36.922L504.405,38.992L509.235,38.992L509.235,56.932L511.485,56.932L511.485,38.992ZM528.836,51.262L531.206,56.932L533.666,56.932L524.666,35.962L515.456,56.932L517.886,56.932L520.286,51.262L528.836,51.262ZM527.966,49.192L521.216,49.192L524.636,41.182L527.966,49.192ZM521.906,31.882C521.065,31.882 520.375,32.572 520.375,33.412C520.375,34.252 521.065,34.942 521.906,34.942C522.745,34.942 523.435,34.252 523.435,33.412C523.435,32.572 522.745,31.882 521.906,31.882ZM527.606,31.882C526.766,31.882 526.076,32.572 526.076,33.412C526.076,34.252 526.766,34.942 527.606,34.942C528.446,34.942 529.136,34.252 529.136,33.412C529.136,32.572 528.446,31.882 527.606,31.882ZM539.876,38.992L544.736,38.992L544.736,36.922L532.796,36.922L532.796,38.992L537.626,38.992L537.626,56.932L539.876,56.932L539.876,38.992Z" style="fill:rgb(35,31,32);fill-rule:nonzero;"/>
        <path d="M181.459,46.882L181.459,48.952L187.399,48.952C187.309,50.182 187.099,50.962 186.589,51.772C185.389,53.782 182.839,55.192 180.439,55.192C175.999,55.192 172.309,51.502 172.309,47.002C172.309,42.352 175.969,38.692 180.619,38.692C183.259,38.692 185.329,39.862 187.279,42.442L188.929,40.942C186.379,37.912 183.889,36.592 180.619,36.592C174.739,36.592 170.059,41.182 170.059,46.972C170.059,52.612 174.709,57.292 180.319,57.292C183.289,57.292 186.139,55.942 187.939,53.692C189.289,52.012 189.799,50.242 189.799,47.392L189.799,46.882L181.459,46.882ZM204.13,38.992L204.13,36.922L193.78,36.922L193.78,56.932L204.13,56.932L204.13,54.862L196.03,54.862L196.03,47.032L203.92,47.032L203.92,44.962L196.03,44.962L196.03,38.992L204.13,38.992ZM217.255,36.592C211.525,36.592 206.815,41.272 206.815,46.972C206.815,52.672 211.495,57.292 217.255,57.292C222.925,57.292 227.635,52.612 227.635,46.942C227.635,41.272 222.925,36.592 217.255,36.592ZM217.225,38.692C221.755,38.692 225.385,42.382 225.385,46.972C225.385,51.502 221.725,55.192 217.225,55.192C212.725,55.192 209.065,51.502 209.065,46.972C209.065,42.352 212.695,38.692 217.225,38.692ZM236.835,47.992C239.925,47.692 241.875,45.562 241.875,42.442C241.875,40.642 241.005,38.932 239.655,38.002C238.515,37.222 237.135,36.922 234.855,36.922L231.615,36.922L231.615,56.932L233.865,56.932L233.865,48.172L234.435,48.172L240.465,56.932L243.195,56.932L236.835,47.992ZM233.865,46.192L233.865,38.992L235.185,38.992C238.125,38.992 239.685,40.192 239.685,42.442C239.685,44.902 238.155,46.192 235.275,46.192L233.865,46.192ZM256.265,46.882L256.265,48.952L262.206,48.952C262.116,50.182 261.906,50.962 261.396,51.772C260.196,53.782 257.646,55.192 255.246,55.192C250.806,55.192 247.116,51.502 247.116,47.002C247.116,42.352 250.776,38.692 255.426,38.692C258.066,38.692 260.135,39.862 262.086,42.442L263.736,40.942C261.186,37.912 258.696,36.592 255.426,36.592C249.546,36.592 244.866,41.182 244.866,46.972C244.866,52.612 249.516,57.292 255.126,57.292C258.096,57.292 260.946,55.942 262.746,53.692C264.096,52.012 264.606,50.242 264.606,47.392L264.606,46.882L256.265,46.882ZM267.591,47.082L267.591,49.002L273.021,49.002L273.021,47.082L267.591,47.082ZM287.511,51.262L289.881,56.932L292.341,56.932L283.341,35.962L274.131,56.932L276.561,56.932L278.961,51.262L287.511,51.262ZM286.641,49.192L279.891,49.192L283.311,41.182L286.641,49.192ZM296.364,36.922L294.114,36.922L294.114,49.792C294.114,51.982 294.474,53.302 295.434,54.532C296.724,56.242 298.944,57.292 301.254,57.292C303.534,57.292 305.724,56.242 307.044,54.532C308.004,53.302 308.364,51.952 308.364,49.792L308.364,36.922L306.114,36.922L306.114,49.192C306.114,51.262 305.964,52.162 305.454,53.032C304.674,54.292 302.964,55.192 301.254,55.192C299.514,55.192 297.804,54.292 297.024,53.032C296.514,52.162 296.364,51.262 296.364,49.192L296.364,36.922ZM323.649,46.882L323.649,48.952L329.589,48.952C329.499,50.182 329.289,50.962 328.779,51.772C327.579,53.782 325.029,55.192 322.629,55.192C318.189,55.192 314.499,51.502 314.499,47.002C314.499,42.352 318.159,38.692 322.809,38.692C325.449,38.692 327.519,39.862 329.469,42.442L331.119,40.942C328.569,37.912 326.079,36.592 322.809,36.592C316.929,36.592 312.249,41.182 312.249,46.972C312.249,52.612 316.899,57.292 322.509,57.292C325.479,57.292 328.329,55.942 330.129,53.692C331.479,52.012 331.989,50.242 331.989,47.392L331.989,46.882L323.649,46.882ZM338.085,36.922L335.835,36.922L335.835,49.792C335.835,51.982 336.195,53.302 337.155,54.532C338.445,56.242 340.665,57.292 342.975,57.292C345.255,57.292 347.445,56.242 348.765,54.532C349.725,53.302 350.085,51.952 350.085,49.792L350.085,36.922L347.835,36.922L347.835,49.192C347.835,51.262 347.685,52.162 347.175,53.032C346.395,54.292 344.685,55.192 342.975,55.192C341.235,55.192 339.525,54.292 338.745,53.032C338.235,52.162 338.085,51.262 338.085,49.192L338.085,36.922ZM365.54,39.712C364.34,37.642 362.63,36.592 360.38,36.592C357.2,36.592 354.77,38.812 354.77,41.722C354.77,43.972 355.94,45.382 358.82,46.672L359.42,46.942L360.02,47.212L360.62,47.512C361.28,47.782 361.85,48.082 362.36,48.412C363.47,49.102 364.01,50.032 364.01,51.262C364.01,53.482 362.24,55.192 359.93,55.192C357.83,55.192 356.45,53.932 355.91,51.532L353.75,52.132C354.53,55.432 356.75,57.292 359.96,57.292C363.5,57.292 366.26,54.562 366.26,51.112C366.26,48.622 364.94,47.032 361.73,45.622L361.1,45.352L360.47,45.082L359.84,44.782C359.27,44.542 358.76,44.242 358.28,43.942C357.44,43.372 357.02,42.652 357.02,41.782C357.02,40.012 358.46,38.692 360.32,38.692C361.88,38.692 362.75,39.232 363.77,40.852L365.54,39.712ZM375.101,38.992L379.961,38.992L379.961,36.922L368.021,36.922L368.021,38.992L372.851,38.992L372.851,56.932L375.101,56.932L375.101,38.992ZM380.045,47.082L380.045,49.002L385.475,49.002L385.475,47.082L380.045,47.082Z" style="fill:rgb(35,31,32);fill-rule:nonzero;"/>
        <path d="M127.238,22.787L102.934,75.578C100.131,80.573 94.835,83.976 88.698,83.976L88.698,93.046C99.511,93.046 108.737,86.302 112.427,76.794L140.889,76.794L152.052,102.004L162.93,102.004L127.238,22.787ZM127.068,45.055L136.837,67.452L116.121,67.451L127.068,45.055Z" style="fill:rgb(82,183,232);fill-rule:nonzero;"/>
        <path d="M109.311,39.931L113.571,30.796C106.475,25.989 97.914,23.179 88.698,23.179C64.175,23.179 44.295,43.06 44.295,67.583C44.295,92.106 64.175,111.986 88.698,111.986C110.063,111.986 127.898,96.896 132.139,76.794L121.945,76.794C117.91,91.384 104.572,102.11 88.698,102.11C69.629,102.11 54.171,86.652 54.171,67.583C54.171,48.514 69.629,33.056 88.698,33.056C96.435,33.056 103.554,35.632 109.311,39.931ZM88.698,76.792L102.146,76.792C102.417,76.394 102.697,76 102.934,75.578L106.681,67.438L88.698,67.438L88.698,76.792Z" style="fill:rgb(0,99,158);fill-rule:nonzero;"/>
    </g>
</svg>
